<?xml version="1.0" encoding="UTF-8" standalone="no"?>
<?xml-stylesheet href="style.css" type="text/css"?>
<!DOCTYPE svg PUBLIC "-//W3C//DTD SVG 1.1//EN"
 "http://www.w3.org/Graphics/SVG/1.1/DTD/svg11.dtd">
<!-- Generated by graphviz version 2.43.0 (0)
 -->
<!-- Title: interactive_q=1.svg Pages: 1 -->
<svg width="881pt" height="200pt"
 viewBox="0.00 0.00 880.50 200.00" xmlns="http://www.w3.org/2000/svg" xmlns:xlink="http://www.w3.org/1999/xlink">
<g id="graph0" class="graph" transform="scale(1 1) rotate(0) translate(4 196)">
<title>interactive_q=1.svg</title>
<polygon fill="white" stroke="transparent" points="-4,4 -4,-196 876.5,-196 876.5,4 -4,4"/>
<!-- r0 -->
<g id="node1" class="node">
<title>r0</title>
<polygon fill="none" stroke="black" stroke-dasharray="5,2" points="431.5,-192 409.5,-192 409.5,-174 431.5,-174 431.5,-192"/>
<text text-anchor="middle" x="420.5" y="-180.8" font-family="serif" font-size="9.00">0</text>
</g>
<!-- v0 -->
<g id="v0_Taxi(0)" class="node">
<title>v0</title>
<ellipse fill="none" stroke="black" cx="32.5" cy="-69" rx="32.5" ry="11"/>
<text text-anchor="middle" x="32.5" y="-66.8" font-family="sans-serif" font-size="9.00">Taxi(0)</text>
</g>
<!-- r0&#45;&gt;v0 -->
<g id="edge1" class="edge">
<title>r0&#45;&gt;v0</title>
<path fill="none" stroke="black" d="M409.26,-179.82C379.72,-174 297.55,-157.22 230.5,-138 167.47,-119.93 94.95,-93.56 57.61,-79.56"/>
<polygon fill="black" stroke="black" points="52.8,-77.75 58.27,-77.41 55.14,-78.63 57.48,-79.51 57.48,-79.51 57.48,-79.51 55.14,-78.63 56.69,-81.62 52.8,-77.75 52.8,-77.75"/>
</g>
<!-- v2 -->
<g id="v2_Taxi(1)" class="node">
<title>v2</title>
<ellipse fill="none" stroke="black" cx="115.5" cy="-69" rx="32.5" ry="11"/>
<text text-anchor="middle" x="115.5" y="-66.8" font-family="sans-serif" font-size="9.00">Taxi(1)</text>
</g>
<!-- r0&#45;&gt;v2 -->
<g id="edge2" class="edge">
<title>r0&#45;&gt;v2</title>
<path fill="none" stroke="black" d="M409.5,-178.36C387.29,-171 335.56,-153.67 292.5,-138 237.81,-118.1 174.23,-93.25 140.13,-79.78"/>
<polygon fill="black" stroke="black" points="135.32,-77.88 140.8,-77.63 137.65,-78.8 139.97,-79.72 139.97,-79.72 139.97,-79.72 137.65,-78.8 139.14,-81.81 135.32,-77.88 135.32,-77.88"/>
</g>
<!-- v4 -->
<g id="v4_Taxi(2)" class="node">
<title>v4</title>
<ellipse fill="none" stroke="black" cx="198.5" cy="-69" rx="32.5" ry="11"/>
<text text-anchor="middle" x="198.5" y="-66.8" font-family="sans-serif" font-size="9.00">Taxi(2)</text>
</g>
<!-- r0&#45;&gt;v4 -->
<g id="edge3" class="edge">
<title>r0&#45;&gt;v4</title>
<path fill="none" stroke="black" d="M409.49,-176.45C374.64,-158.86 266.32,-104.21 219.93,-80.81"/>
<polygon fill="black" stroke="black" points="215.38,-78.51 220.85,-78.76 217.61,-79.64 219.84,-80.77 219.84,-80.77 219.84,-80.77 217.61,-79.64 218.83,-82.78 215.38,-78.51 215.38,-78.51"/>
</g>
<!-- v6 -->
<g id="v6_Taxi(3)" class="node">
<title>v6</title>
<ellipse fill="none" stroke="black" cx="281.5" cy="-69" rx="32.5" ry="11"/>
<text text-anchor="middle" x="281.5" y="-66.8" font-family="sans-serif" font-size="9.00">Taxi(3)</text>
</g>
<!-- r0&#45;&gt;v6 -->
<g id="edge4" class="edge">
<title>r0&#45;&gt;v6</title>
<path fill="none" stroke="black" d="M410.5,-173.95C386.65,-154.73 326.25,-106.06 297.37,-82.78"/>
<polygon fill="black" stroke="black" points="293.34,-79.54 298.64,-80.93 295.29,-81.11 297.23,-82.68 297.23,-82.68 297.23,-82.68 295.29,-81.11 295.82,-84.43 293.34,-79.54 293.34,-79.54"/>
</g>
<!-- v8 -->
<g id="v8_Taxi(4)" class="node">
<title>v8</title>
<ellipse fill="none" stroke="black" cx="364.5" cy="-69" rx="32.5" ry="11"/>
<text text-anchor="middle" x="364.5" y="-66.8" font-family="sans-serif" font-size="9.00">Taxi(4)</text>
</g>
<!-- r0&#45;&gt;v8 -->
<g id="edge5" class="edge">
<title>r0&#45;&gt;v8</title>
<path fill="none" stroke="black" d="M416.47,-173.95C407.15,-155.31 383.99,-108.98 371.98,-84.96"/>
<polygon fill="black" stroke="black" points="369.6,-80.2 373.85,-83.66 370.72,-82.43 371.83,-84.67 371.83,-84.67 371.83,-84.67 370.72,-82.43 369.82,-85.67 369.6,-80.2 369.6,-80.2"/>
</g>
<!-- v10 -->
<g id="v10_Stands(1)" class="node">
<title>v10</title>
<ellipse fill="none" stroke="black" cx="454.5" cy="-69" rx="39.5" ry="11"/>
<text text-anchor="middle" x="454.5" y="-66.8" font-family="sans-serif" font-size="9.00">Stands(1)</text>
</g>
<!-- r0&#45;&gt;v10 -->
<g id="edge6" class="edge">
<title>r0&#45;&gt;v10</title>
<path fill="none" stroke="black" d="M422.95,-173.95C428.58,-155.39 442.55,-109.36 449.87,-85.27"/>
<polygon fill="black" stroke="black" points="451.4,-80.2 452.11,-85.63 450.68,-82.59 449.95,-84.98 449.95,-84.98 449.95,-84.98 450.68,-82.59 447.8,-84.33 451.4,-80.2 451.4,-80.2"/>
</g>
<!-- v12 -->
<g id="v12_Stands(2)" class="node">
<title>v12</title>
<ellipse fill="none" stroke="black" cx="551.5" cy="-69" rx="39.5" ry="11"/>
<text text-anchor="middle" x="551.5" y="-66.8" font-family="sans-serif" font-size="9.00">Stands(2)</text>
</g>
<!-- r0&#45;&gt;v12 -->
<g id="edge7" class="edge">
<title>r0&#45;&gt;v12</title>
<path fill="none" stroke="black" d="M429.92,-173.95C452.29,-154.82 508.76,-106.54 536.14,-83.13"/>
<polygon fill="black" stroke="black" points="539.96,-79.87 537.62,-84.82 538.06,-81.49 536.16,-83.11 536.16,-83.11 536.16,-83.11 538.06,-81.49 534.7,-81.4 539.96,-79.87 539.96,-79.87"/>
</g>
<!-- v14 -->
<g id="v14_Stands(3)" class="node">
<title>v14</title>
<ellipse fill="none" stroke="black" cx="648.5" cy="-69" rx="39.5" ry="11"/>
<text text-anchor="middle" x="648.5" y="-66.8" font-family="sans-serif" font-size="9.00">Stands(3)</text>
</g>
<!-- r0&#45;&gt;v14 -->
<g id="edge8" class="edge">
<title>r0&#45;&gt;v14</title>
<path fill="none" stroke="black" d="M431.81,-176.45C467.42,-158.95 577.77,-104.74 625.79,-81.16"/>
<polygon fill="black" stroke="black" points="630.51,-78.84 627.02,-83.06 628.27,-79.94 626.02,-81.04 626.02,-81.04 626.02,-81.04 628.27,-79.94 625.03,-79.02 630.51,-78.84 630.51,-78.84"/>
</g>
<!-- v16 -->
<g id="v16_Pad" class="node">
<title>v16</title>
<ellipse fill="none" stroke="black" cx="685.5" cy="-127" rx="18" ry="11"/>
<text text-anchor="middle" x="685.5" y="-124.8" font-family="sans-serif" font-size="9.00">Pad</text>
</g>
<!-- r0&#45;&gt;v16 -->
<g id="edge9" class="edge">
<title>r0&#45;&gt;v16</title>
<path fill="none" stroke="black" d="M431.55,-179.75C471.69,-171.57 610.25,-143.33 663.98,-132.39"/>
<polygon fill="black" stroke="black" points="668.9,-131.38 664.45,-134.59 666.45,-131.88 664,-132.38 664,-132.38 664,-132.38 666.45,-131.88 663.55,-130.18 668.9,-131.38 668.9,-131.38"/>
</g>
<!-- v19 -->
<g id="v19_Approach(2)" class="node">
<title>v19</title>
<ellipse fill="none" stroke="black" cx="825.5" cy="-11" rx="47" ry="11"/>
<text text-anchor="middle" x="825.5" y="-8.8" font-family="sans-serif" font-size="9.00">Approach(2)</text>
</g>
<!-- r0&#45;&gt;v19 -->
<g id="edge10" class="edge">
<title>r0&#45;&gt;v19</title>
<path fill="none" stroke="black" d="M431.61,-181.33C478.78,-178.32 662.3,-165.08 712.5,-138 762.37,-111.1 801.23,-53.23 817.37,-26.31"/>
<polygon fill="black" stroke="black" points="819.94,-21.96 819.33,-27.41 818.67,-24.11 817.39,-26.27 817.39,-26.27 817.39,-26.27 818.67,-24.11 815.46,-25.12 819.94,-21.96 819.94,-21.96"/>
</g>
<!-- v1 -->
<g id="v1_Free" class="node">
<title>v1</title>
<ellipse fill="none" stroke="black" cx="32.5" cy="-11" rx="21.5" ry="11"/>
<text text-anchor="middle" x="32.5" y="-8.8" font-family="sans-serif" font-size="9.00">Free</text>
</g>
<!-- v0&#45;&gt;v1 -->
<g id="edge11" class="edge">
<title>v0&#45;&gt;v1</title>
<path fill="none" stroke="black" d="M32.5,-57.99C32.5,-49.49 32.5,-37.17 32.5,-27.42"/>
<polygon fill="black" stroke="black" points="32.5,-22.3 34.75,-27.3 32.5,-24.8 32.5,-27.3 32.5,-27.3 32.5,-27.3 32.5,-24.8 30.25,-27.3 32.5,-22.3 32.5,-22.3"/>
</g>
<!-- v3 -->
<g id="v3_Free" class="node">
<title>v3</title>
<ellipse fill="none" stroke="black" cx="115.5" cy="-11" rx="21.5" ry="11"/>
<text text-anchor="middle" x="115.5" y="-8.8" font-family="sans-serif" font-size="9.00">Free</text>
</g>
<!-- v2&#45;&gt;v3 -->
<g id="edge12" class="edge">
<title>v2&#45;&gt;v3</title>
<path fill="none" stroke="black" d="M115.5,-57.99C115.5,-49.49 115.5,-37.17 115.5,-27.42"/>
<polygon fill="black" stroke="black" points="115.5,-22.3 117.75,-27.3 115.5,-24.8 115.5,-27.3 115.5,-27.3 115.5,-27.3 115.5,-24.8 113.25,-27.3 115.5,-22.3 115.5,-22.3"/>
</g>
<!-- v5 -->
<g id="v5_Free" class="node">
<title>v5</title>
<ellipse fill="none" stroke="black" cx="198.5" cy="-11" rx="21.5" ry="11"/>
<text text-anchor="middle" x="198.5" y="-8.8" font-family="sans-serif" font-size="9.00">Free</text>
</g>
<!-- v4&#45;&gt;v5 -->
<g id="edge13" class="edge">
<title>v4&#45;&gt;v5</title>
<path fill="none" stroke="black" d="M198.5,-57.99C198.5,-49.49 198.5,-37.17 198.5,-27.42"/>
<polygon fill="black" stroke="black" points="198.5,-22.3 200.75,-27.3 198.5,-24.8 198.5,-27.3 198.5,-27.3 198.5,-27.3 198.5,-24.8 196.25,-27.3 198.5,-22.3 198.5,-22.3"/>
</g>
<!-- v7 -->
<g id="v7_Free" class="node">
<title>v7</title>
<ellipse fill="none" stroke="black" cx="281.5" cy="-11" rx="21.5" ry="11"/>
<text text-anchor="middle" x="281.5" y="-8.8" font-family="sans-serif" font-size="9.00">Free</text>
</g>
<!-- v6&#45;&gt;v7 -->
<g id="edge14" class="edge">
<title>v6&#45;&gt;v7</title>
<path fill="none" stroke="black" d="M281.5,-57.99C281.5,-49.49 281.5,-37.17 281.5,-27.42"/>
<polygon fill="black" stroke="black" points="281.5,-22.3 283.75,-27.3 281.5,-24.8 281.5,-27.3 281.5,-27.3 281.5,-27.3 281.5,-24.8 279.25,-27.3 281.5,-22.3 281.5,-22.3"/>
</g>
<!-- v9 -->
<g id="v9_Free" class="node">
<title>v9</title>
<ellipse fill="none" stroke="black" cx="364.5" cy="-11" rx="21.5" ry="11"/>
<text text-anchor="middle" x="364.5" y="-8.8" font-family="sans-serif" font-size="9.00">Free</text>
</g>
<!-- v8&#45;&gt;v9 -->
<g id="edge15" class="edge">
<title>v8&#45;&gt;v9</title>
<path fill="none" stroke="black" d="M364.5,-57.99C364.5,-49.49 364.5,-37.17 364.5,-27.42"/>
<polygon fill="black" stroke="black" points="364.5,-22.3 366.75,-27.3 364.5,-24.8 364.5,-27.3 364.5,-27.3 364.5,-27.3 364.5,-24.8 362.25,-27.3 364.5,-22.3 364.5,-22.3"/>
</g>
<!-- v11 -->
<g id="v11_Free" class="node">
<title>v11</title>
<ellipse fill="none" stroke="black" cx="454.5" cy="-11" rx="21.5" ry="11"/>
<text text-anchor="middle" x="454.5" y="-8.8" font-family="sans-serif" font-size="9.00">Free</text>
</g>
<!-- v10&#45;&gt;v11 -->
<g id="edge16" class="edge">
<title>v10&#45;&gt;v11</title>
<path fill="none" stroke="black" d="M454.5,-57.99C454.5,-49.49 454.5,-37.17 454.5,-27.42"/>
<polygon fill="black" stroke="black" points="454.5,-22.3 456.75,-27.3 454.5,-24.8 454.5,-27.3 454.5,-27.3 454.5,-27.3 454.5,-24.8 452.25,-27.3 454.5,-22.3 454.5,-22.3"/>
</g>
<!-- v13 -->
<g id="v13_Free" class="node">
<title>v13</title>
<ellipse fill="none" stroke="black" cx="551.5" cy="-11" rx="21.5" ry="11"/>
<text text-anchor="middle" x="551.5" y="-8.8" font-family="sans-serif" font-size="9.00">Free</text>
</g>
<!-- v12&#45;&gt;v13 -->
<g id="edge17" class="edge">
<title>v12&#45;&gt;v13</title>
<path fill="none" stroke="black" d="M551.5,-57.99C551.5,-49.49 551.5,-37.17 551.5,-27.42"/>
<polygon fill="black" stroke="black" points="551.5,-22.3 553.75,-27.3 551.5,-24.8 551.5,-27.3 551.5,-27.3 551.5,-27.3 551.5,-24.8 549.25,-27.3 551.5,-22.3 551.5,-22.3"/>
</g>
<!-- v15 -->
<g id="v15_Free" class="node">
<title>v15</title>
<ellipse fill="none" stroke="black" cx="648.5" cy="-11" rx="21.5" ry="11"/>
<text text-anchor="middle" x="648.5" y="-8.8" font-family="sans-serif" font-size="9.00">Free</text>
</g>
<!-- v14&#45;&gt;v15 -->
<g id="edge18" class="edge">
<title>v14&#45;&gt;v15</title>
<path fill="none" stroke="black" d="M648.5,-57.99C648.5,-49.49 648.5,-37.17 648.5,-27.42"/>
<polygon fill="black" stroke="black" points="648.5,-22.3 650.75,-27.3 648.5,-24.8 648.5,-27.3 648.5,-27.3 648.5,-27.3 648.5,-24.8 646.25,-27.3 648.5,-22.3 648.5,-22.3"/>
</g>
<!-- v17 -->
<g id="v17_Occ" class="node">
<title>v17</title>
<ellipse fill="none" stroke="black" cx="724.5" cy="-69" rx="18" ry="11"/>
<text text-anchor="middle" x="724.5" y="-66.8" font-family="sans-serif" font-size="9.00">Occ</text>
</g>
<!-- v16&#45;&gt;v17 -->
<g id="edge19" class="edge">
<title>v16&#45;&gt;v17</title>
<path fill="none" stroke="black" d="M692.12,-116.5C698.43,-107.44 708,-93.69 715.11,-83.49"/>
<polygon fill="black" stroke="black" points="717.98,-79.36 716.97,-84.75 716.55,-81.41 715.12,-83.46 715.12,-83.46 715.12,-83.46 716.55,-81.41 713.28,-82.18 717.98,-79.36 717.98,-79.36"/>
</g>
<!-- v18 -->
<g id="v18_Drone(1)" class="node">
<title>v18</title>
<ellipse fill="none" stroke="black" cx="724.5" cy="-11" rx="36" ry="11"/>
<text text-anchor="middle" x="724.5" y="-8.8" font-family="sans-serif" font-size="9.00">Drone(1)</text>
</g>
<!-- v17&#45;&gt;v18 -->
<g id="edge20" class="edge">
<title>v17&#45;&gt;v18</title>
<path fill="none" stroke="black" d="M724.5,-57.99C724.5,-49.49 724.5,-37.17 724.5,-27.42"/>
<polygon fill="black" stroke="black" points="724.5,-22.3 726.75,-27.3 724.5,-24.8 724.5,-27.3 724.5,-27.3 724.5,-27.3 724.5,-24.8 722.25,-27.3 724.5,-22.3 724.5,-22.3"/>
</g>
</g>
</svg>
