<?xml version="1.0" encoding="UTF-8" standalone="no"?>
<?xml-stylesheet href="style.css" type="text/css"?>
<!DOCTYPE svg PUBLIC "-//W3C//DTD SVG 1.1//EN"
 "http://www.w3.org/Graphics/SVG/1.1/DTD/svg11.dtd">
<!-- Generated by graphviz version 2.43.0 (0)
 -->
<!-- Title: interactive_q=20.svg Pages: 1 -->
<svg width="842pt" height="258pt"
 viewBox="0.00 0.00 841.50 258.00" xmlns="http://www.w3.org/2000/svg" xmlns:xlink="http://www.w3.org/1999/xlink">
<g id="graph0" class="graph" transform="scale(1 1) rotate(0) translate(4 254)">
<title>interactive_q=20.svg</title>
<polygon fill="white" stroke="transparent" points="-4,4 -4,-254 837.5,-254 837.5,4 -4,4"/>
<!-- r0 -->
<g id="node1" class="node">
<title>r0</title>
<polygon fill="none" stroke="black" stroke-dasharray="5,2" points="409.5,-250 387.5,-250 387.5,-232 409.5,-232 409.5,-250"/>
<text text-anchor="middle" x="398.5" y="-238.8" font-family="serif" font-size="9.00">0</text>
</g>
<!-- v0 -->
<g id="v0_Stands(3)" class="node">
<title>v0</title>
<ellipse fill="none" stroke="black" cx="39.5" cy="-69" rx="39.5" ry="11"/>
<text text-anchor="middle" x="39.5" y="-66.8" font-family="sans-serif" font-size="9.00">Stands(3)</text>
</g>
<!-- r0&#45;&gt;v0 -->
<g id="edge1" class="edge">
<title>r0&#45;&gt;v0</title>
<path fill="none" stroke="black" d="M387.35,-239.69C339.2,-238.15 149.4,-230 102.5,-196 64.82,-168.68 48.35,-112.34 42.37,-85.23"/>
<polygon fill="black" stroke="black" points="41.31,-80.22 44.55,-84.65 41.83,-82.66 42.35,-85.11 42.35,-85.11 42.35,-85.11 41.83,-82.66 40.14,-85.57 41.31,-80.22 41.31,-80.22"/>
</g>
<!-- v2 -->
<g id="v2_Approach(1)" class="node">
<title>v2</title>
<ellipse fill="none" stroke="black" cx="116.5" cy="-11" rx="47" ry="11"/>
<text text-anchor="middle" x="116.5" y="-8.8" font-family="sans-serif" font-size="9.00">Approach(1)</text>
</g>
<!-- r0&#45;&gt;v2 -->
<g id="edge2" class="edge">
<title>r0&#45;&gt;v2</title>
<path fill="none" stroke="black" d="M387.38,-236.69C346.64,-223.94 204.29,-174.04 135.5,-80 124.03,-64.32 119.48,-41.98 117.68,-27.25"/>
<polygon fill="black" stroke="black" points="117.13,-22.19 119.9,-26.92 117.4,-24.67 117.67,-27.16 117.67,-27.16 117.67,-27.16 117.4,-24.67 115.43,-27.4 117.13,-22.19 117.13,-22.19"/>
</g>
<!-- v3 -->
<g id="v3_Taxi(0)" class="node">
<title>v3</title>
<ellipse fill="none" stroke="black" cx="177.5" cy="-69" rx="32.5" ry="11"/>
<text text-anchor="middle" x="177.5" y="-66.8" font-family="sans-serif" font-size="9.00">Taxi(0)</text>
</g>
<!-- r0&#45;&gt;v3 -->
<g id="edge3" class="edge">
<title>r0&#45;&gt;v3</title>
<path fill="none" stroke="black" d="M387.84,-231.8C352.16,-204.36 236.77,-115.59 193.81,-82.55"/>
<polygon fill="black" stroke="black" points="189.65,-79.34 194.98,-80.61 191.63,-80.87 193.61,-82.39 193.61,-82.39 193.61,-82.39 191.63,-80.87 192.24,-84.18 189.65,-79.34 189.65,-79.34"/>
</g>
<!-- v5 -->
<g id="v5_Stands(2)" class="node">
<title>v5</title>
<ellipse fill="none" stroke="black" cx="267.5" cy="-69" rx="39.5" ry="11"/>
<text text-anchor="middle" x="267.5" y="-66.8" font-family="sans-serif" font-size="9.00">Stands(2)</text>
</g>
<!-- r0&#45;&gt;v5 -->
<g id="edge4" class="edge">
<title>r0&#45;&gt;v5</title>
<path fill="none" stroke="black" d="M392.18,-231.8C371.44,-204.89 305.26,-119 278.69,-84.53"/>
<polygon fill="black" stroke="black" points="275.36,-80.2 280.2,-82.79 276.89,-82.18 278.42,-84.16 278.42,-84.16 278.42,-84.16 276.89,-82.18 276.63,-85.54 275.36,-80.2 275.36,-80.2"/>
</g>
<!-- v7 -->
<g id="v7_Stands(1)" class="node">
<title>v7</title>
<ellipse fill="none" stroke="black" cx="364.5" cy="-69" rx="39.5" ry="11"/>
<text text-anchor="middle" x="364.5" y="-66.8" font-family="sans-serif" font-size="9.00">Stands(1)</text>
</g>
<!-- r0&#45;&gt;v7 -->
<g id="edge5" class="edge">
<title>r0&#45;&gt;v7</title>
<path fill="none" stroke="black" d="M396.86,-231.8C391.52,-205.11 374.58,-120.4 367.58,-85.38"/>
<polygon fill="black" stroke="black" points="366.54,-80.2 369.73,-84.67 367.03,-82.66 367.52,-85.11 367.52,-85.11 367.52,-85.11 367.03,-82.66 365.32,-85.55 366.54,-80.2 366.54,-80.2"/>
</g>
<!-- v9 -->
<g id="v9_Taxi(1)" class="node">
<title>v9</title>
<ellipse fill="none" stroke="black" cx="454.5" cy="-69" rx="32.5" ry="11"/>
<text text-anchor="middle" x="454.5" y="-66.8" font-family="sans-serif" font-size="9.00">Taxi(1)</text>
</g>
<!-- r0&#45;&gt;v9 -->
<g id="edge6" class="edge">
<title>r0&#45;&gt;v9</title>
<path fill="none" stroke="black" d="M401.2,-231.8C409.99,-205.11 437.9,-120.4 449.43,-85.38"/>
<polygon fill="black" stroke="black" points="451.14,-80.2 451.71,-85.66 450.36,-82.58 449.57,-84.95 449.57,-84.95 449.57,-84.95 450.36,-82.58 447.44,-84.25 451.14,-80.2 451.14,-80.2"/>
</g>
<!-- v11 -->
<g id="v11_Taxi(2)" class="node">
<title>v11</title>
<ellipse fill="none" stroke="black" cx="537.5" cy="-69" rx="32.5" ry="11"/>
<text text-anchor="middle" x="537.5" y="-66.8" font-family="sans-serif" font-size="9.00">Taxi(2)</text>
</g>
<!-- r0&#45;&gt;v11 -->
<g id="edge7" class="edge">
<title>r0&#45;&gt;v11</title>
<path fill="none" stroke="black" d="M405.2,-231.8C427.31,-204.76 498.1,-118.19 526.02,-84.04"/>
<polygon fill="black" stroke="black" points="529.51,-79.77 528.09,-85.06 527.93,-81.71 526.35,-83.64 526.35,-83.64 526.35,-83.64 527.93,-81.71 524.6,-82.22 529.51,-79.77 529.51,-79.77"/>
</g>
<!-- v13 -->
<g id="v13_Taxi(3)" class="node">
<title>v13</title>
<ellipse fill="none" stroke="black" cx="620.5" cy="-69" rx="32.5" ry="11"/>
<text text-anchor="middle" x="620.5" y="-66.8" font-family="sans-serif" font-size="9.00">Taxi(3)</text>
</g>
<!-- r0&#45;&gt;v13 -->
<g id="edge8" class="edge">
<title>r0&#45;&gt;v13</title>
<path fill="none" stroke="black" d="M409.42,-231.95C421.29,-223.17 440.81,-208.67 457.5,-196 511.53,-154.97 574.98,-105.57 604.22,-82.73"/>
<polygon fill="black" stroke="black" points="608.29,-79.56 605.73,-84.41 606.32,-81.1 604.35,-82.63 604.35,-82.63 604.35,-82.63 606.32,-81.1 602.96,-80.86 608.29,-79.56 608.29,-79.56"/>
</g>
<!-- v15 -->
<g id="v15_Pad" class="node">
<title>v15</title>
<ellipse fill="none" stroke="black" cx="659.5" cy="-185" rx="18" ry="11"/>
<text text-anchor="middle" x="659.5" y="-182.8" font-family="sans-serif" font-size="9.00">Pad</text>
</g>
<!-- r0&#45;&gt;v15 -->
<g id="edge9" class="edge">
<title>r0&#45;&gt;v15</title>
<path fill="none" stroke="black" d="M409.71,-237.68C449.52,-229.44 584.5,-201.52 637.69,-190.51"/>
<polygon fill="black" stroke="black" points="642.88,-189.44 638.44,-192.66 640.43,-189.95 637.98,-190.45 637.98,-190.45 637.98,-190.45 640.43,-189.95 637.52,-188.25 642.88,-189.44 642.88,-189.44"/>
</g>
<!-- v17 -->
<g id="v17_Taxi(4)" class="node">
<title>v17</title>
<ellipse fill="none" stroke="black" cx="770.5" cy="-185" rx="32.5" ry="11"/>
<text text-anchor="middle" x="770.5" y="-182.8" font-family="sans-serif" font-size="9.00">Taxi(4)</text>
</g>
<!-- r0&#45;&gt;v17 -->
<g id="edge10" class="edge">
<title>r0&#45;&gt;v17</title>
<path fill="none" stroke="black" d="M409.63,-238.38C458.67,-231.27 656.47,-202.55 736.57,-190.92"/>
<polygon fill="black" stroke="black" points="741.68,-190.18 737.05,-193.13 739.2,-190.54 736.73,-190.9 736.73,-190.9 736.73,-190.9 739.2,-190.54 736.41,-188.68 741.68,-190.18 741.68,-190.18"/>
</g>
<!-- v1 -->
<g id="v1_Free" class="node">
<title>v1</title>
<ellipse fill="none" stroke="black" cx="29.5" cy="-11" rx="21.5" ry="11"/>
<text text-anchor="middle" x="29.5" y="-8.8" font-family="sans-serif" font-size="9.00">Free</text>
</g>
<!-- v0&#45;&gt;v1 -->
<g id="edge11" class="edge">
<title>v0&#45;&gt;v1</title>
<path fill="none" stroke="black" d="M37.71,-57.99C36.2,-49.49 33.99,-37.17 32.25,-27.42"/>
<polygon fill="black" stroke="black" points="31.34,-22.3 34.43,-26.83 31.78,-24.76 32.22,-27.23 32.22,-27.23 32.22,-27.23 31.78,-24.76 30,-27.62 31.34,-22.3 31.34,-22.3"/>
</g>
<!-- v4 -->
<g id="v4_Free" class="node">
<title>v4</title>
<ellipse fill="none" stroke="black" cx="203.5" cy="-11" rx="21.5" ry="11"/>
<text text-anchor="middle" x="203.5" y="-8.8" font-family="sans-serif" font-size="9.00">Free</text>
</g>
<!-- v3&#45;&gt;v4 -->
<g id="edge12" class="edge">
<title>v3&#45;&gt;v4</title>
<path fill="none" stroke="black" d="M182.15,-57.99C186.22,-49.23 192.17,-36.4 196.76,-26.51"/>
<polygon fill="black" stroke="black" points="198.89,-21.93 198.83,-27.41 197.84,-24.19 196.79,-26.46 196.79,-26.46 196.79,-26.46 197.84,-24.19 194.75,-25.51 198.89,-21.93 198.89,-21.93"/>
</g>
<!-- v6 -->
<g id="v6_Free" class="node">
<title>v6</title>
<ellipse fill="none" stroke="black" cx="267.5" cy="-11" rx="21.5" ry="11"/>
<text text-anchor="middle" x="267.5" y="-8.8" font-family="sans-serif" font-size="9.00">Free</text>
</g>
<!-- v5&#45;&gt;v6 -->
<g id="edge13" class="edge">
<title>v5&#45;&gt;v6</title>
<path fill="none" stroke="black" d="M267.5,-57.99C267.5,-49.49 267.5,-37.17 267.5,-27.42"/>
<polygon fill="black" stroke="black" points="267.5,-22.3 269.75,-27.3 267.5,-24.8 267.5,-27.3 267.5,-27.3 267.5,-27.3 267.5,-24.8 265.25,-27.3 267.5,-22.3 267.5,-22.3"/>
</g>
<!-- v8 -->
<g id="v8_Free" class="node">
<title>v8</title>
<ellipse fill="none" stroke="black" cx="364.5" cy="-11" rx="21.5" ry="11"/>
<text text-anchor="middle" x="364.5" y="-8.8" font-family="sans-serif" font-size="9.00">Free</text>
</g>
<!-- v7&#45;&gt;v8 -->
<g id="edge14" class="edge">
<title>v7&#45;&gt;v8</title>
<path fill="none" stroke="black" d="M364.5,-57.99C364.5,-49.49 364.5,-37.17 364.5,-27.42"/>
<polygon fill="black" stroke="black" points="364.5,-22.3 366.75,-27.3 364.5,-24.8 364.5,-27.3 364.5,-27.3 364.5,-27.3 364.5,-24.8 362.25,-27.3 364.5,-22.3 364.5,-22.3"/>
</g>
<!-- v10 -->
<g id="v10_Free" class="node">
<title>v10</title>
<ellipse fill="none" stroke="black" cx="454.5" cy="-11" rx="21.5" ry="11"/>
<text text-anchor="middle" x="454.5" y="-8.8" font-family="sans-serif" font-size="9.00">Free</text>
</g>
<!-- v9&#45;&gt;v10 -->
<g id="edge15" class="edge">
<title>v9&#45;&gt;v10</title>
<path fill="none" stroke="black" d="M454.5,-57.99C454.5,-49.49 454.5,-37.17 454.5,-27.42"/>
<polygon fill="black" stroke="black" points="454.5,-22.3 456.75,-27.3 454.5,-24.8 454.5,-27.3 454.5,-27.3 454.5,-27.3 454.5,-24.8 452.25,-27.3 454.5,-22.3 454.5,-22.3"/>
</g>
<!-- v12 -->
<g id="v12_Free" class="node">
<title>v12</title>
<ellipse fill="none" stroke="black" cx="537.5" cy="-11" rx="21.5" ry="11"/>
<text text-anchor="middle" x="537.5" y="-8.8" font-family="sans-serif" font-size="9.00">Free</text>
</g>
<!-- v11&#45;&gt;v12 -->
<g id="edge16" class="edge">
<title>v11&#45;&gt;v12</title>
<path fill="none" stroke="black" d="M537.5,-57.99C537.5,-49.49 537.5,-37.17 537.5,-27.42"/>
<polygon fill="black" stroke="black" points="537.5,-22.3 539.75,-27.3 537.5,-24.8 537.5,-27.3 537.5,-27.3 537.5,-27.3 537.5,-24.8 535.25,-27.3 537.5,-22.3 537.5,-22.3"/>
</g>
<!-- v14 -->
<g id="v14_Free" class="node">
<title>v14</title>
<ellipse fill="none" stroke="black" cx="620.5" cy="-11" rx="21.5" ry="11"/>
<text text-anchor="middle" x="620.5" y="-8.8" font-family="sans-serif" font-size="9.00">Free</text>
</g>
<!-- v13&#45;&gt;v14 -->
<g id="edge17" class="edge">
<title>v13&#45;&gt;v14</title>
<path fill="none" stroke="black" d="M620.5,-57.99C620.5,-49.49 620.5,-37.17 620.5,-27.42"/>
<polygon fill="black" stroke="black" points="620.5,-22.3 622.75,-27.3 620.5,-24.8 620.5,-27.3 620.5,-27.3 620.5,-27.3 620.5,-24.8 618.25,-27.3 620.5,-22.3 620.5,-22.3"/>
</g>
<!-- v16 -->
<g id="v16_Occ" class="node">
<title>v16</title>
<ellipse fill="none" stroke="black" cx="697.5" cy="-127" rx="18" ry="11"/>
<text text-anchor="middle" x="697.5" y="-124.8" font-family="sans-serif" font-size="9.00">Occ</text>
</g>
<!-- v15&#45;&gt;v16 -->
<g id="edge18" class="edge">
<title>v15&#45;&gt;v16</title>
<path fill="none" stroke="black" d="M665.95,-174.5C672.04,-165.52 681.26,-151.93 688.16,-141.76"/>
<polygon fill="black" stroke="black" points="691.15,-137.36 690.2,-142.76 689.75,-139.43 688.34,-141.5 688.34,-141.5 688.34,-141.5 689.75,-139.43 686.48,-140.23 691.15,-137.36 691.15,-137.36"/>
</g>
<!-- v21 -->
<g id="v21_Drone(2)" class="node">
<title>v21</title>
<ellipse fill="none" stroke="black" cx="707.5" cy="-69" rx="36" ry="11"/>
<text text-anchor="middle" x="707.5" y="-66.8" font-family="sans-serif" font-size="9.00">Drone(2)</text>
</g>
<!-- v16&#45;&gt;v21 -->
<g id="edge19" class="edge">
<title>v16&#45;&gt;v21</title>
<path fill="none" stroke="black" d="M699.29,-115.99C700.8,-107.49 703.01,-95.17 704.75,-85.42"/>
<polygon fill="black" stroke="black" points="705.66,-80.3 707,-85.62 705.22,-82.76 704.78,-85.23 704.78,-85.23 704.78,-85.23 705.22,-82.76 702.57,-84.83 705.66,-80.3 705.66,-80.3"/>
</g>
<!-- v18 -->
<g id="v18_Occ" class="node">
<title>v18</title>
<ellipse fill="none" stroke="black" cx="779.5" cy="-127" rx="18" ry="11"/>
<text text-anchor="middle" x="779.5" y="-124.8" font-family="sans-serif" font-size="9.00">Occ</text>
</g>
<!-- v17&#45;&gt;v18 -->
<g id="edge20" class="edge">
<title>v17&#45;&gt;v18</title>
<path fill="none" stroke="black" d="M772.11,-173.99C773.47,-165.49 775.45,-153.17 777.02,-143.42"/>
<polygon fill="black" stroke="black" points="777.84,-138.3 779.27,-143.6 777.45,-140.77 777.05,-143.24 777.05,-143.24 777.05,-143.24 777.45,-140.77 774.83,-142.88 777.84,-138.3 777.84,-138.3"/>
</g>
<!-- v19 -->
<g id="v19_Drone(1)" class="node">
<title>v19</title>
<ellipse fill="none" stroke="black" cx="797.5" cy="-69" rx="36" ry="11"/>
<text text-anchor="middle" x="797.5" y="-66.8" font-family="sans-serif" font-size="9.00">Drone(1)</text>
</g>
<!-- v18&#45;&gt;v19 -->
<g id="edge21" class="edge">
<title>v18&#45;&gt;v19</title>
<path fill="none" stroke="black" d="M782.72,-115.99C785.47,-107.42 789.48,-94.94 792.63,-85.15"/>
<polygon fill="black" stroke="black" points="794.19,-80.3 794.8,-85.75 793.42,-82.68 792.66,-85.06 792.66,-85.06 792.66,-85.06 793.42,-82.68 790.52,-84.38 794.19,-80.3 794.19,-80.3"/>
</g>
<!-- v20 -->
<g id="v20_Serviced" class="node">
<title>v20</title>
<ellipse fill="none" stroke="black" cx="797.5" cy="-11" rx="36" ry="11"/>
<text text-anchor="middle" x="797.5" y="-8.8" font-family="sans-serif" font-size="9.00">Serviced</text>
</g>
<!-- v19&#45;&gt;v20 -->
<g id="edge22" class="edge">
<title>v19&#45;&gt;v20</title>
<path fill="none" stroke="black" d="M797.5,-57.99C797.5,-49.49 797.5,-37.17 797.5,-27.42"/>
<polygon fill="black" stroke="black" points="797.5,-22.3 799.75,-27.3 797.5,-24.8 797.5,-27.3 797.5,-27.3 797.5,-27.3 797.5,-24.8 795.25,-27.3 797.5,-22.3 797.5,-22.3"/>
</g>
<!-- v22 -->
<g id="v22_Serviced" class="node">
<title>v22</title>
<ellipse fill="none" stroke="black" cx="707.5" cy="-11" rx="36" ry="11"/>
<text text-anchor="middle" x="707.5" y="-8.8" font-family="sans-serif" font-size="9.00">Serviced</text>
</g>
<!-- v21&#45;&gt;v22 -->
<g id="edge23" class="edge">
<title>v21&#45;&gt;v22</title>
<path fill="none" stroke="black" d="M707.5,-57.99C707.5,-49.49 707.5,-37.17 707.5,-27.42"/>
<polygon fill="black" stroke="black" points="707.5,-22.3 709.75,-27.3 707.5,-24.8 707.5,-27.3 707.5,-27.3 707.5,-27.3 707.5,-24.8 705.25,-27.3 707.5,-22.3 707.5,-22.3"/>
</g>
</g>
</svg>
