<?xml version="1.0" encoding="UTF-8" standalone="no"?>
<?xml-stylesheet href="style.css" type="text/css"?>
<!DOCTYPE svg PUBLIC "-//W3C//DTD SVG 1.1//EN"
 "http://www.w3.org/Graphics/SVG/1.1/DTD/svg11.dtd">
<!-- Generated by graphviz version 2.43.0 (0)
 -->
<!-- Title: interactive_q=4.svg Pages: 1 -->
<svg width="877pt" height="200pt"
 viewBox="0.00 0.00 876.50 200.00" xmlns="http://www.w3.org/2000/svg" xmlns:xlink="http://www.w3.org/1999/xlink">
<g id="graph0" class="graph" transform="scale(1 1) rotate(0) translate(4 196)">
<title>interactive_q=4.svg</title>
<polygon fill="white" stroke="transparent" points="-4,4 -4,-196 872.5,-196 872.5,4 -4,4"/>
<!-- r0 -->
<g id="node1" class="node">
<title>r0</title>
<polygon fill="none" stroke="black" stroke-dasharray="5,2" points="456.5,-192 434.5,-192 434.5,-174 456.5,-174 456.5,-192"/>
<text text-anchor="middle" x="445.5" y="-180.8" font-family="serif" font-size="9.00">0</text>
</g>
<!-- v0 -->
<g id="v0_Taxi(2)" class="node">
<title>v0</title>
<ellipse fill="none" stroke="black" cx="32.5" cy="-69" rx="32.5" ry="11"/>
<text text-anchor="middle" x="32.5" y="-66.8" font-family="sans-serif" font-size="9.00">Taxi(2)</text>
</g>
<!-- r0&#45;&gt;v0 -->
<g id="edge1" class="edge">
<title>r0&#45;&gt;v0</title>
<path fill="none" stroke="black" d="M434.12,-180.06C402.6,-174.57 311.61,-158.06 237.5,-138 171.86,-120.23 96.34,-93.51 57.88,-79.44"/>
<polygon fill="black" stroke="black" points="52.93,-77.62 58.4,-77.23 55.27,-78.48 57.62,-79.35 57.62,-79.35 57.62,-79.35 55.27,-78.48 56.85,-81.46 52.93,-77.62 52.93,-77.62"/>
</g>
<!-- v2 -->
<g id="v2_Taxi(3)" class="node">
<title>v2</title>
<ellipse fill="none" stroke="black" cx="115.5" cy="-69" rx="32.5" ry="11"/>
<text text-anchor="middle" x="115.5" y="-66.8" font-family="sans-serif" font-size="9.00">Taxi(3)</text>
</g>
<!-- r0&#45;&gt;v2 -->
<g id="edge2" class="edge">
<title>r0&#45;&gt;v2</title>
<path fill="none" stroke="black" d="M434.4,-178.75C410.4,-171.69 351.95,-154.26 303.5,-138 244.85,-118.32 176.74,-93.08 140.77,-79.56"/>
<polygon fill="black" stroke="black" points="135.7,-77.66 141.17,-77.31 138.04,-78.54 140.38,-79.42 140.38,-79.42 140.38,-79.42 138.04,-78.54 139.59,-81.52 135.7,-77.66 135.7,-77.66"/>
</g>
<!-- v4 -->
<g id="v4_Taxi(4)" class="node">
<title>v4</title>
<ellipse fill="none" stroke="black" cx="198.5" cy="-69" rx="32.5" ry="11"/>
<text text-anchor="middle" x="198.5" y="-66.8" font-family="sans-serif" font-size="9.00">Taxi(4)</text>
</g>
<!-- r0&#45;&gt;v4 -->
<g id="edge3" class="edge">
<title>r0&#45;&gt;v4</title>
<path fill="none" stroke="black" d="M434.25,-176.9C396.39,-159.73 273.19,-103.87 221.58,-80.46"/>
<polygon fill="black" stroke="black" points="216.81,-78.3 222.29,-78.32 219.09,-79.33 221.36,-80.37 221.36,-80.37 221.36,-80.37 219.09,-79.33 220.43,-82.42 216.81,-78.3 216.81,-78.3"/>
</g>
<!-- v6 -->
<g id="v6_Stands(1)" class="node">
<title>v6</title>
<ellipse fill="none" stroke="black" cx="288.5" cy="-69" rx="39.5" ry="11"/>
<text text-anchor="middle" x="288.5" y="-66.8" font-family="sans-serif" font-size="9.00">Stands(1)</text>
</g>
<!-- r0&#45;&gt;v6 -->
<g id="edge4" class="edge">
<title>r0&#45;&gt;v6</title>
<path fill="none" stroke="black" d="M434.21,-173.95C407.16,-154.65 338.49,-105.66 306.02,-82.5"/>
<polygon fill="black" stroke="black" points="301.87,-79.54 307.25,-80.61 303.91,-80.99 305.94,-82.44 305.94,-82.44 305.94,-82.44 303.91,-80.99 304.64,-84.28 301.87,-79.54 301.87,-79.54"/>
</g>
<!-- v8 -->
<g id="v8_Stands(2)" class="node">
<title>v8</title>
<ellipse fill="none" stroke="black" cx="385.5" cy="-69" rx="39.5" ry="11"/>
<text text-anchor="middle" x="385.5" y="-66.8" font-family="sans-serif" font-size="9.00">Stands(2)</text>
</g>
<!-- r0&#45;&gt;v8 -->
<g id="edge5" class="edge">
<title>r0&#45;&gt;v8</title>
<path fill="none" stroke="black" d="M441.18,-173.95C431.16,-155.23 406.17,-108.59 393.36,-84.66"/>
<polygon fill="black" stroke="black" points="390.96,-80.2 395.31,-83.54 392.14,-82.4 393.32,-84.6 393.32,-84.6 393.32,-84.6 392.14,-82.4 391.34,-85.67 390.96,-80.2 390.96,-80.2"/>
</g>
<!-- v10 -->
<g id="v10_Stands(3)" class="node">
<title>v10</title>
<ellipse fill="none" stroke="black" cx="482.5" cy="-69" rx="39.5" ry="11"/>
<text text-anchor="middle" x="482.5" y="-66.8" font-family="sans-serif" font-size="9.00">Stands(3)</text>
</g>
<!-- r0&#45;&gt;v10 -->
<g id="edge6" class="edge">
<title>r0&#45;&gt;v10</title>
<path fill="none" stroke="black" d="M448.16,-173.95C454.32,-155.31 469.62,-108.98 477.56,-84.96"/>
<polygon fill="black" stroke="black" points="479.13,-80.2 479.7,-85.65 478.35,-82.57 477.56,-84.94 477.56,-84.94 477.56,-84.94 478.35,-82.57 475.43,-84.24 479.13,-80.2 479.13,-80.2"/>
</g>
<!-- v12 -->
<g id="v12_Taxi(0)" class="node">
<title>v12</title>
<ellipse fill="none" stroke="black" cx="572.5" cy="-69" rx="32.5" ry="11"/>
<text text-anchor="middle" x="572.5" y="-66.8" font-family="sans-serif" font-size="9.00">Taxi(0)</text>
</g>
<!-- r0&#45;&gt;v12 -->
<g id="edge7" class="edge">
<title>r0&#45;&gt;v12</title>
<path fill="none" stroke="black" d="M454.63,-173.95C476.34,-154.81 531.16,-106.46 557.68,-83.07"/>
<polygon fill="black" stroke="black" points="561.68,-79.54 559.42,-84.53 559.81,-81.19 557.93,-82.85 557.93,-82.85 557.93,-82.85 559.81,-81.19 556.44,-81.16 561.68,-79.54 561.68,-79.54"/>
</g>
<!-- v14 -->
<g id="v14_Taxi(1)" class="node">
<title>v14</title>
<ellipse fill="none" stroke="black" cx="615.5" cy="-127" rx="32.5" ry="11"/>
<text text-anchor="middle" x="615.5" y="-124.8" font-family="sans-serif" font-size="9.00">Taxi(1)</text>
</g>
<!-- r0&#45;&gt;v14 -->
<g id="edge8" class="edge">
<title>r0&#45;&gt;v14</title>
<path fill="none" stroke="black" d="M456.65,-178.46C483.09,-170.06 550.2,-148.74 588.19,-136.68"/>
<polygon fill="black" stroke="black" points="593.12,-135.11 589.04,-138.77 590.74,-135.87 588.36,-136.62 588.36,-136.62 588.36,-136.62 590.74,-135.87 587.68,-134.48 593.12,-135.11 593.12,-135.11"/>
</g>
<!-- v17 -->
<g id="v17_Pad" class="node">
<title>v17</title>
<ellipse fill="none" stroke="black" cx="687.5" cy="-127" rx="18" ry="11"/>
<text text-anchor="middle" x="687.5" y="-124.8" font-family="sans-serif" font-size="9.00">Pad</text>
</g>
<!-- r0&#45;&gt;v17 -->
<g id="edge9" class="edge">
<title>r0&#45;&gt;v17</title>
<path fill="none" stroke="black" d="M456.64,-180.16C488.34,-174.83 581.64,-158.44 657.5,-138 660.77,-137.12 664.21,-136.08 667.54,-135.01"/>
<polygon fill="black" stroke="black" points="672.65,-133.33 668.6,-137.03 670.28,-134.11 667.9,-134.9 667.9,-134.9 667.9,-134.9 670.28,-134.11 667.2,-132.76 672.65,-133.33 672.65,-133.33"/>
</g>
<!-- v20 -->
<g id="v20_Approach(1)" class="node">
<title>v20</title>
<ellipse fill="none" stroke="black" cx="821.5" cy="-11" rx="47" ry="11"/>
<text text-anchor="middle" x="821.5" y="-8.8" font-family="sans-serif" font-size="9.00">Approach(1)</text>
</g>
<!-- r0&#45;&gt;v20 -->
<g id="edge10" class="edge">
<title>r0&#45;&gt;v20</title>
<path fill="none" stroke="black" d="M456.66,-181.2C501.58,-177.83 668.98,-163.73 714.5,-138 762.25,-111.01 798.33,-54.1 813.56,-26.98"/>
<polygon fill="black" stroke="black" points="816.16,-22.28 815.71,-27.74 814.95,-24.47 813.74,-26.66 813.74,-26.66 813.74,-26.66 814.95,-24.47 811.77,-25.57 816.16,-22.28 816.16,-22.28"/>
</g>
<!-- v1 -->
<g id="v1_Free" class="node">
<title>v1</title>
<ellipse fill="none" stroke="black" cx="32.5" cy="-11" rx="21.5" ry="11"/>
<text text-anchor="middle" x="32.5" y="-8.8" font-family="sans-serif" font-size="9.00">Free</text>
</g>
<!-- v0&#45;&gt;v1 -->
<g id="edge11" class="edge">
<title>v0&#45;&gt;v1</title>
<path fill="none" stroke="black" d="M32.5,-57.99C32.5,-49.49 32.5,-37.17 32.5,-27.42"/>
<polygon fill="black" stroke="black" points="32.5,-22.3 34.75,-27.3 32.5,-24.8 32.5,-27.3 32.5,-27.3 32.5,-27.3 32.5,-24.8 30.25,-27.3 32.5,-22.3 32.5,-22.3"/>
</g>
<!-- v3 -->
<g id="v3_Free" class="node">
<title>v3</title>
<ellipse fill="none" stroke="black" cx="115.5" cy="-11" rx="21.5" ry="11"/>
<text text-anchor="middle" x="115.5" y="-8.8" font-family="sans-serif" font-size="9.00">Free</text>
</g>
<!-- v2&#45;&gt;v3 -->
<g id="edge12" class="edge">
<title>v2&#45;&gt;v3</title>
<path fill="none" stroke="black" d="M115.5,-57.99C115.5,-49.49 115.5,-37.17 115.5,-27.42"/>
<polygon fill="black" stroke="black" points="115.5,-22.3 117.75,-27.3 115.5,-24.8 115.5,-27.3 115.5,-27.3 115.5,-27.3 115.5,-24.8 113.25,-27.3 115.5,-22.3 115.5,-22.3"/>
</g>
<!-- v5 -->
<g id="v5_Free" class="node">
<title>v5</title>
<ellipse fill="none" stroke="black" cx="198.5" cy="-11" rx="21.5" ry="11"/>
<text text-anchor="middle" x="198.5" y="-8.8" font-family="sans-serif" font-size="9.00">Free</text>
</g>
<!-- v4&#45;&gt;v5 -->
<g id="edge13" class="edge">
<title>v4&#45;&gt;v5</title>
<path fill="none" stroke="black" d="M198.5,-57.99C198.5,-49.49 198.5,-37.17 198.5,-27.42"/>
<polygon fill="black" stroke="black" points="198.5,-22.3 200.75,-27.3 198.5,-24.8 198.5,-27.3 198.5,-27.3 198.5,-27.3 198.5,-24.8 196.25,-27.3 198.5,-22.3 198.5,-22.3"/>
</g>
<!-- v7 -->
<g id="v7_Free" class="node">
<title>v7</title>
<ellipse fill="none" stroke="black" cx="288.5" cy="-11" rx="21.5" ry="11"/>
<text text-anchor="middle" x="288.5" y="-8.8" font-family="sans-serif" font-size="9.00">Free</text>
</g>
<!-- v6&#45;&gt;v7 -->
<g id="edge14" class="edge">
<title>v6&#45;&gt;v7</title>
<path fill="none" stroke="black" d="M288.5,-57.99C288.5,-49.49 288.5,-37.17 288.5,-27.42"/>
<polygon fill="black" stroke="black" points="288.5,-22.3 290.75,-27.3 288.5,-24.8 288.5,-27.3 288.5,-27.3 288.5,-27.3 288.5,-24.8 286.25,-27.3 288.5,-22.3 288.5,-22.3"/>
</g>
<!-- v9 -->
<g id="v9_Free" class="node">
<title>v9</title>
<ellipse fill="none" stroke="black" cx="385.5" cy="-11" rx="21.5" ry="11"/>
<text text-anchor="middle" x="385.5" y="-8.8" font-family="sans-serif" font-size="9.00">Free</text>
</g>
<!-- v8&#45;&gt;v9 -->
<g id="edge15" class="edge">
<title>v8&#45;&gt;v9</title>
<path fill="none" stroke="black" d="M385.5,-57.99C385.5,-49.49 385.5,-37.17 385.5,-27.42"/>
<polygon fill="black" stroke="black" points="385.5,-22.3 387.75,-27.3 385.5,-24.8 385.5,-27.3 385.5,-27.3 385.5,-27.3 385.5,-24.8 383.25,-27.3 385.5,-22.3 385.5,-22.3"/>
</g>
<!-- v11 -->
<g id="v11_Free" class="node">
<title>v11</title>
<ellipse fill="none" stroke="black" cx="482.5" cy="-11" rx="21.5" ry="11"/>
<text text-anchor="middle" x="482.5" y="-8.8" font-family="sans-serif" font-size="9.00">Free</text>
</g>
<!-- v10&#45;&gt;v11 -->
<g id="edge16" class="edge">
<title>v10&#45;&gt;v11</title>
<path fill="none" stroke="black" d="M482.5,-57.99C482.5,-49.49 482.5,-37.17 482.5,-27.42"/>
<polygon fill="black" stroke="black" points="482.5,-22.3 484.75,-27.3 482.5,-24.8 482.5,-27.3 482.5,-27.3 482.5,-27.3 482.5,-24.8 480.25,-27.3 482.5,-22.3 482.5,-22.3"/>
</g>
<!-- v13 -->
<g id="v13_Free" class="node">
<title>v13</title>
<ellipse fill="none" stroke="black" cx="554.5" cy="-11" rx="21.5" ry="11"/>
<text text-anchor="middle" x="554.5" y="-8.8" font-family="sans-serif" font-size="9.00">Free</text>
</g>
<!-- v12&#45;&gt;v13 -->
<g id="edge17" class="edge">
<title>v12&#45;&gt;v13</title>
<path fill="none" stroke="black" d="M569.28,-57.99C566.49,-49.31 562.42,-36.63 559.25,-26.78"/>
<polygon fill="black" stroke="black" points="557.69,-21.93 561.36,-26 558.46,-24.31 559.22,-26.69 559.22,-26.69 559.22,-26.69 558.46,-24.31 557.08,-27.37 557.69,-21.93 557.69,-21.93"/>
</g>
<!-- v15 -->
<g id="v15_Occ" class="node">
<title>v15</title>
<ellipse fill="none" stroke="black" cx="641.5" cy="-69" rx="18" ry="11"/>
<text text-anchor="middle" x="641.5" y="-66.8" font-family="sans-serif" font-size="9.00">Occ</text>
</g>
<!-- v14&#45;&gt;v15 -->
<g id="edge18" class="edge">
<title>v14&#45;&gt;v15</title>
<path fill="none" stroke="black" d="M620.15,-115.99C624.22,-107.23 630.17,-94.4 634.76,-84.51"/>
<polygon fill="black" stroke="black" points="636.89,-79.93 636.83,-85.41 635.84,-82.19 634.79,-84.46 634.79,-84.46 634.79,-84.46 635.84,-82.19 632.75,-83.51 636.89,-79.93 636.89,-79.93"/>
</g>
<!-- v16 -->
<g id="v16_Drone(1)" class="node">
<title>v16</title>
<ellipse fill="none" stroke="black" cx="630.5" cy="-11" rx="36" ry="11"/>
<text text-anchor="middle" x="630.5" y="-8.8" font-family="sans-serif" font-size="9.00">Drone(1)</text>
</g>
<!-- v15&#45;&gt;v16 -->
<g id="edge19" class="edge">
<title>v15&#45;&gt;v16</title>
<path fill="none" stroke="black" d="M639.53,-57.99C637.86,-49.49 635.44,-37.17 633.53,-27.42"/>
<polygon fill="black" stroke="black" points="632.52,-22.3 635.7,-26.78 633.01,-24.76 633.49,-27.21 633.49,-27.21 633.49,-27.21 633.01,-24.76 631.28,-27.64 632.52,-22.3 632.52,-22.3"/>
</g>
<!-- v18 -->
<g id="v18_Occ" class="node">
<title>v18</title>
<ellipse fill="none" stroke="black" cx="708.5" cy="-69" rx="18" ry="11"/>
<text text-anchor="middle" x="708.5" y="-66.8" font-family="sans-serif" font-size="9.00">Occ</text>
</g>
<!-- v17&#45;&gt;v18 -->
<g id="edge20" class="edge">
<title>v17&#45;&gt;v18</title>
<path fill="none" stroke="black" d="M691.25,-115.99C694.51,-107.31 699.26,-94.63 702.96,-84.78"/>
<polygon fill="black" stroke="black" points="704.78,-79.93 705.13,-85.4 703.9,-82.27 703.02,-84.61 703.02,-84.61 703.02,-84.61 703.9,-82.27 700.92,-83.82 704.78,-79.93 704.78,-79.93"/>
</g>
<!-- v19 -->
<g id="v19_Drone(2)" class="node">
<title>v19</title>
<ellipse fill="none" stroke="black" cx="720.5" cy="-11" rx="36" ry="11"/>
<text text-anchor="middle" x="720.5" y="-8.8" font-family="sans-serif" font-size="9.00">Drone(2)</text>
</g>
<!-- v18&#45;&gt;v19 -->
<g id="edge21" class="edge">
<title>v18&#45;&gt;v19</title>
<path fill="none" stroke="black" d="M710.65,-57.99C712.47,-49.49 715.11,-37.17 717.2,-27.42"/>
<polygon fill="black" stroke="black" points="718.29,-22.3 719.44,-27.66 717.77,-24.75 717.24,-27.19 717.24,-27.19 717.24,-27.19 717.77,-24.75 715.04,-26.72 718.29,-22.3 718.29,-22.3"/>
</g>
</g>
</svg>
